<?xml version="1.0" ?><svg id="Layer_1" style="enable-background:new 0 0 250 250;" version="1.1" viewBox="0 0 250 250" xml:space="preserve" xmlns="http://www.w3.org/2000/svg" xmlns:xlink="http://www.w3.org/1999/xlink"><style type="text/css">
	.st0{fill-rule:evenodd;clip-rule:evenodd;fill:#78C701;}
	.st1{fill-rule:evenodd;clip-rule:evenodd;fill:#7AC805;}
	.st2{fill-rule:evenodd;clip-rule:evenodd;fill:#7AC804;}
	.st3{fill-rule:evenodd;clip-rule:evenodd;fill:#F39205;}
	.st4{fill-rule:evenodd;clip-rule:evenodd;fill:#7DC909;}
	.st5{fill-rule:evenodd;clip-rule:evenodd;fill:#8EDF01;}
	.st6{fill-rule:evenodd;clip-rule:evenodd;fill:#F29100;}
	.st7{fill-rule:evenodd;clip-rule:evenodd;fill:#8CDE00;}
	.st8{fill-rule:evenodd;clip-rule:evenodd;fill:#FCFDFB;}
	.st9{fill-rule:evenodd;clip-rule:evenodd;fill:#FCC100;}
	.st10{fill-rule:evenodd;clip-rule:evenodd;fill:#4D4D4D;}
	.st11{fill-rule:evenodd;clip-rule:evenodd;fill:#FEDC00;}
</style><g><path class="st0" d="M128.110397,148.805695c-1.973701,0.009705-3.947304,0.018509-5.919998,0.029312   c-8.6455-0.677811-16.877396-2.883804-24.679199-6.674805c-6.829597-3.746109-13.023903-8.308609-18.016098-14.339905   c-1.044899-1.261696-1.943298-1.225594-3.320305-0.7099c-8.510201,3.186508-17.258797,4.219696-26.308598,2.995102   c-8.116699-1.098694-10.599598-5.689003-6.6782-12.776901c6.7925-12.273895,13.574699-24.554695,20.414101-36.8013   c0.812-1.456001,1.182102-2.883301,1.177197-4.546799c-0.041496-16.358898-0.041496-32.716301-0.019493-49.074699   C64.780296,10.7935,78.9077,1.25146,93.794403,7.32715c7.141594,2.914051,14.311996,5.70505,21.710495,7.93605   c6.554695,1.9761,12.954102,2.001401,19.511703,0.026401c7.207993-2.170501,14.196289-4.8843,21.1436-7.74028   c15.110291-6.21094,29.141586,3.16898,29.17569,19.54348c0.036209,15.9575,0.030304,31.913502-0.018494,47.871098   c-0.006897,1.979004,0.447205,3.695801,1.408203,5.4189c6.884796,12.337906,13.717789,24.703606,20.542999,37.0737   c3.796799,6.881905,1.267502,11.5513-6.584,12.633301c-9.152405,1.261795-17.9991,0.205109-26.600601-3.032196   c-1.392609-0.523399-2.289108-0.559601-3.332993,0.695297c-5.004913,6.015701-11.215805,10.563507-17.978516,14.403397   C144.949203,145.847702,136.767593,148.210907,128.110397,148.805695z M133.690399,74.642601   c0.691391,0.102501,0.9366,0.681099,1.2715,1.172798c5.209,7.658699,12.418991,11.151398,21.697296,10.9263   c9.925812-0.240196,20.151306-8.781296,21.986298-18.582001c1.063507-5.684097,0.315399-11.390697,0.554703-17.081097   c0.218704-5.186001-1.095703-10.137203-4.348602-14.040001c-3.321304-3.984402-5.615295-8.089901-6.592804-13.236401   c-0.751999-3.9599-2.400391-4.171801-5.19429-1.388599c-0.639709,0.637699-1.246109,1.3125-1.921906,1.908199   c-0.486298,0.429199-0.894592,1.409599-1.622101,0.9599c-0.46579-0.2885-0.748001-1.2255-0.735291-1.863701   c0.030197-1.751499-0.3741-3.371599-1.054703-4.948799c-1.514709-3.5107-3.052811-3.5698-5.564499-0.654699   c-4.627899,5.372-9.258804,10.769499-14.25,15.796801c-6.110306,6.1548-17.941406,6.869198-23.683601,1.6035   C108.1772,29.663099,102.784698,23.452101,97.279297,17.3657c-1.963898-2.1704-2.963394-2.116199-4.440895,0.503901   c-1.340401,2.378399-1.440002,5.070299-1.784698,7.3985C89.5933,24.038099,88.038101,22.9517,86.763702,21.5991   c-1.587906-1.684099-2.793503-1.1709-3.912605,0.361799c-1.4785,2.021-1.841293,4.391201-1.817894,6.8218   c0.012695,1.357401-0.130402,2.5249-1.355003,3.440899c-3.629402,2.713402-6.147903,6.3106-7.408203,10.6241   c-2.462898,8.433102-2.288994,17.093201-0.562996,25.5322c2.626503,12.853004,15.9375,20.795403,28.583496,17.846703   c7.269104-1.695297,12.4981-5.921402,16.284698-12.1744c0.514603,1.698799,0.623001,3.515701,1.738304,5.035698   c2.279297,3.102501,5.401299,4.119598,8.966797,3.284203C131.216797,81.449699,133.178696,78.568802,133.690399,74.642601z    M111.6455,113.792503c3.410194,0.057098,7.4375-2.604004,8.612297-5.523506c0.575203-1.428696,0.2061-2.2211-1.247101-2.244095   c-4.602501-0.073204-9.2089-0.114304-13.810997,0.003899c-1.951698,0.048798-2.467804,1.5-1.4394,2.923798   C105.674797,111.602997,108.125496,113.637199,111.6455,113.792503z M138.6875,105.987801   c-2.300797,0-4.605499-0.049797-6.905304,0.016098c-1.744095,0.050804-2.305603,1.111298-1.740189,2.653305   c0.883789,2.412094,5.498993,5.192894,8.329086,5.1353c3.536102-0.070801,7.486298-2.816406,8.479507-5.7285   c0.555695-1.625504-0.283203-2.027405-1.556702-2.0625C143.093796,105.940399,140.890594,105.984901,138.6875,105.987801z    M125.241196,119.2183c-2.002899,0-4.004898-0.038101-6.006798,0.016602c-0.845703,0.023399-1.932602-0.404305-2.445297,0.608398   c-0.582603,1.154297,0.161095,2.1474,0.797798,3.0224c3.717796,5.109901,12.389694,4.5728,15.675797-0.941399   c1.001007-1.680603,0.667999-2.667999-1.414093-2.695305C129.6465,119.200699,127.443398,119.222198,125.241196,119.2183z"/><path class="st1" d="M193.504898,244.5186c-8.466797-0.004898-14.151398-4.169998-15.167007-11.167007   c-0.591797-4.079086,0.712906-7.558594,3.764603-10.2686c1.144608-1.016586,1.628906-1.429688,0.368195-2.919891   c-4.627899-5.465805-2.884796-13.096695,3.588913-16.498108c3.627899-1.906189,7.508789-2.225494,11.416992-1.280197   c3.412109,0.826111,6.498001,0.302704,9.605408-1.1875c2.493195-1.196289,3.519592-0.390701,3.375992,2.365204   c-0.071304,1.327103-0.255905,2.867203-1.210892,3.634796c-2.361404,1.899399-2.288101,4.139603-2.024399,6.824203   c0.226486,2.311493-0.898514,4.527298-2.576202,6.2285c-0.97171,0.983398-1.295898,1.6035,0.098602,2.473602   c6.186493,3.864304,5.8535,15.830093-2.788101,19.968796C199.281296,243.974594,196.450195,244.505905,193.504898,244.5186z    M193.667999,237.291c3.758789-0.033203,6.531189-2.376007,6.587891-5.568298   c0.060501-3.322296-2.765701-5.701202-6.745193-5.680695c-3.891602,0.017593-6.507797,2.229492-6.534103,5.5215   C186.951202,234.9189,189.759796,237.324203,193.667999,237.291z M198.589798,213.6875   c-0.042908-2.933594-1.986298-4.717804-5.077103-4.663101c-2.975601,0.051804-5.027298,2.033203-5.028305,4.854507   c-0.000992,2.750992,2.175812,4.867188,5.025406,4.886688C196.539093,218.789093,198.635696,216.693405,198.589798,213.6875z"/><path class="st2" d="M29.2715,203.039093c0.3472-3.075195,0.112301-5.832993,1.1919-8.369186   c0.426201-1.001907,0.9531-1.997009,1.611799-2.860306c1.184101-1.553696,2.732399-3.055695,4.758801-2.555695   c2.311501,0.570297,1.357399,2.834991,1.367699,4.377899c0.072201,11.219788,0.046803,22.438492,0.027302,33.659195   c-0.0019,1.158203,0.396999,2.601593-0.938999,3.246094c-1.415501,0.684601-2.777802,0.025406-3.8554-0.940399   c-1.0821-0.968796-1.756901-1.678696-3.468302-0.577194c-6.0434,3.888702-13.867699,2.910202-18.743599-2.023407   c-4.91313-4.971695-5.69682-12.914993-1.85551-18.8125c3.792009-5.823196,11.20901-8.224594,17.99511-5.827194   C27.915501,202.551804,28.466801,202.751999,29.2715,203.039093z M15.8428,216.423798   c0.007299,4.257797,2.7202,7.071304,6.808599,7.060608c4.085901-0.010803,6.7754-2.836899,6.7651-7.107407   c-0.0107-4.253998-2.749001-7.108398-6.812-7.099701C18.5518,209.284195,15.8364,212.156296,15.8428,216.423798z"/><path class="st1" d="M93.787102,231.355499c-8.746605,0.042908-15.554199-6.462906-15.585403-14.8965   c-0.0298-8.289093,6.998505-15.132797,15.514603-15.108398c8.626495,0.024399,15.508797,6.781204,15.424294,15.142593   C109.056198,224.776398,102.302696,231.313507,93.787102,231.355499z M100.267601,216.381805   c-0.012703-4.122009-2.727104-7.072205-6.538605-7.1064c-3.900894-0.03421-6.739296,3.080093-6.655296,7.299789   c0.081596,4.108398,2.840897,6.952103,6.701698,6.910202C97.609398,223.443405,100.281296,220.5186,100.267601,216.381805z"/><path class="st1" d="M227.502899,231.3535c-8.762711-0.033203-15.305603-6.534195-15.238312-15.141602   c0.064514-8.242203,6.888702-14.844696,15.363312-14.860306c8.629898-0.016586,15.457993,6.658203,15.434601,15.0849   C243.039093,224.860397,236.232391,231.386703,227.502899,231.3535z M234.148392,216.464798   c0.024506-4.262695-2.491196-7.0849-6.3759-7.150299c-3.868195-0.064499-6.621094,2.754807-6.721695,6.884705   c-0.1035,4.27739,2.628891,7.292999,6.600601,7.291C231.550797,223.487305,234.123993,220.704102,234.148392,216.464798z"/><path class="st2" d="M144.868195,215.924805c0-3.613312-0.009796-7.225601,0.005798-10.837906   c0.004898-1.077103-0.246994-2.300797,1.037109-2.900406c1.270493-0.592697,2.656296-0.126892,3.295898,0.759811   c1.872101,2.599594,3.344803,1.518494,5.496094,0.240189c8.005905-4.751892,17.449203-0.268494,19.110397,8.877014   c0.921906,5.080994,0.405304,10.211899,0.456009,15.31929c0.029297,2.899399-2.116211,2.965805-4.22261,2.95311   c-2.148499-0.012711-4.472702,0.161194-4.541-2.955002c-0.088882-4.010803,0.081009-8.035202-0.150391-12.036209   c-0.287109-4.952103-5.106506-7.295898-9.085999-4.572189c-1.925705,1.320297-2.5439,3.302689-2.588806,5.486298   c-0.072296,3.410095-0.005905,6.824188-0.079102,10.23439c-0.073303,3.402298-0.678696,3.873001-4.547897,3.841812   c-3.564392-0.027405-4.150406-0.547913-4.178696-3.873108C144.845703,222.950195,144.868195,219.4375,144.868195,215.924805z"/><path class="st1" d="M73.285202,216.950195c0.002899,3.508804,0.027298,7.019501-0.011803,10.529312   c-0.012703,1.150391,0.370201,2.596695-1.096596,3.141586c-1.326202,0.492203-2.751007,0.040009-3.580605-0.979492   c-1.550301-1.907196-2.680199-1.433609-4.533195-0.226608c-7.768105,5.059601-17.381405,0.720703-19.143604-8.511688   c-0.986801-5.166-0.538498-10.401306-0.473099-15.605408c0.038601-3.072296,2.463898-2.841797,4.608898-2.884796   c2.216801-0.044006,4.104,0.310501,4.139603,3.095703c0.046898,3.709-0.023403,7.42189,0.067898,11.128891   c0.1035,4.186508,1.858402,6.261703,5.2104,6.382797c3.5494,0.129913,5.774902-1.875,6.0625-5.986298   c0.258301-3.692398,0.199303-7.418991,0.0923-11.123993c-0.091301-3.201202,1.828598-3.524506,4.300301-3.508804   c2.405304,0.01561,4.469299,0.158203,4.378899,3.417908C73.204597,209.526398,73.283203,213.239304,73.285202,216.950195z"/><path class="st0" d="M122.602493,209.718796c-0.000893,5.715805-0.087898,11.432602,0.033203,17.145508   c0.067398,3.264603-1.906197,3.439392-4.330002,3.434494c-2.381897-0.003891-4.418999-0.059494-4.378899-3.357391   c0.114204-9.424805,0.041504-18.849609,0.148399-28.273407c0.039101-3.459,1.315399-6.471695,4.1875-8.598694   c0.971703-0.719711,2.117203-1.326111,3.351601-0.732407c1.237305,0.594696,0.9804,1.855499,0.983398,2.934601   C122.610397,198.087906,122.602493,203.902298,122.602493,209.718796z"/><path class="st3" d="M97.5112,142.160202c7.801804,3.791,16.033699,5.996994,24.679199,6.674805   c-0.686501,4.836899-3.263603,7.294891-8.107903,7.484299c-3.288597,0.127991-6.586403-0.017502-9.877899,0.042999   c-3.851601,0.071289-7.191399-0.835907-8.909698-4.68071C93.649399,148.001999,94.9375,144.907196,97.5112,142.160202z"/><path class="st3" d="M128.110397,148.805695c8.657196-0.594788,16.838806-2.957993,24.662094-6.649399   c2.761703,2.669907,3.964798,5.784103,2.367111,9.480408c-1.614212,3.737289-4.820313,4.774399-8.599609,4.721695   c-3.101501-0.0439-6.204987,0.025406-9.306595-0.015594C131.73439,156.269501,129.236298,154.184601,128.110397,148.805695z"/><path class="st4" d="M138.1689,216.519501c0,3.401398-0.080002,6.803696,0.023499,10.201202   c0.093704,3.051804-1.635803,3.69339-4.199203,3.650391c-2.438492-0.039993-4.716797-0.032196-4.693405-3.453094   c0.049805-7.000992,0.044006-14.003006,0.004913-21.003906c-0.0186-3.3311,2.119095-3.510788,4.6465-3.531296   c2.579102-0.019501,4.303696,0.6035,4.236298,3.634796C138.110397,209.516602,138.1689,213.0186,138.1689,216.519501z"/><path class="st4" d="M133.620102,198.515594c-2.616211-0.068298-4.835907-2.273392-4.802704-4.764587   c0.037094-2.628006,2.457993-4.791,5.193298-4.638702c2.620193,0.145493,4.779297,2.408188,4.661194,4.88089   C138.552704,196.468796,136.189499,198.585007,133.620102,198.515594z"/><path class="st5" d="M116.575195,74.0522c-3.786598,6.252998-9.015594,10.479103-16.284698,12.1744   c-12.645996,2.9487-25.956993-4.993698-28.583496-17.846703c-1.725998-8.438999-1.899902-17.099098,0.562996-25.5322   c1.2603-4.313499,3.778801-7.910698,7.408203-10.6241c1.224602-0.915998,1.367699-2.083498,1.355003-3.440899   c-0.023399-2.430599,0.339394-4.8008,1.817894-6.8218c1.119102-1.5327,2.324699-2.045898,3.912605-0.361799   c1.274399,1.3526,2.829597,2.438999,4.290001,3.669001c0.344696-2.328201,0.444298-5.020102,1.784698-7.3985   c1.477501-2.6201,2.476997-2.6743,4.440895-0.503901c5.505402,6.086401,10.897903,12.2974,16.953102,17.849102   c5.742195,5.265697,17.573296,4.5513,23.683601-1.6035c4.991196-5.027302,9.622101-10.424801,14.25-15.796801   c2.511688-2.915101,4.049789-2.856001,5.564499,0.654699c0.680603,1.5772,1.0849,3.1973,1.054703,4.948799   c-0.012711,0.638201,0.269501,1.575201,0.735291,1.863701c0.727509,0.449699,1.135803-0.530701,1.622101-0.9599   c0.675797-0.595699,1.282196-1.2705,1.921906-1.908199c2.7939-2.783201,4.442291-2.571301,5.19429,1.388599   c0.977509,5.1465,3.2715,9.251999,6.592804,13.236401c3.252899,3.902798,4.567307,8.854,4.348602,14.040001   c-0.239304,5.690399,0.508804,11.396999-0.554703,17.081097c-1.834991,9.800705-12.060486,18.341805-21.986298,18.582001   c-9.278305,0.225098-16.488297-3.267601-21.697296-10.9263c-0.3349-0.491699-0.580109-1.070297-1.2724-1.171799   c-0.034195-0.379898-0.066498-0.759804-0.098709-1.141197c3.133804-0.503906,3.574203-1.156204,2.181702-3.808105   c-2.166092-4.121101-5.555695-6.442299-10.323296-6.515598c-4.962898-0.076199-8.6894,2.063999-11.054695,6.384304   c-1.541504,2.817894-1.055603,3.542496,2.200195,3.894997C116.624001,73.6567,116.617195,73.855499,116.575195,74.0522z    M112.464798,57.650398c0-2.6973,0.048897-4.502899-0.008301-6.305199C112.183594,42.619099,105.625,35.854,96.900902,35.266602   c-8.360405-0.5625-15.958,5.495098-17.183601,13.9492c-0.719299,4.966297-0.719299,10.011299-0.007301,14.976597   c1.135704,7.908203,7.852501,13.813499,15.639099,14.054703c7.877998,0.243095,14.944397-5.121597,16.754402-12.799301   C112.776398,62.589802,112.389198,59.6558,112.464798,57.650398z M137.635696,56.493198   c0,1.804203-0.030197,3.608902,0.005905,5.413101c0.180695,8.963299,7.454102,16.250904,16.29689,16.349102   c9.008804,0.100601,16.533203-7.110901,16.789001-16.177803c0.099609-3.505299,0.085007-7.017998,0.007904-10.524399   c-0.166107-7.5844-5.571304-14.298801-12.739304-15.9375c-7.539093-1.723099-14.968796,1.864799-18.638702,8.835499   C137.3311,48.299801,137.635696,52.399399,137.635696,56.493198z"/><path class="st6" d="M133.59079,73.502403c0.032211,0.381393,0.064514,0.761299,0.098709,1.141197   c-0.510803,3.925201-2.472702,6.806099-6.409203,7.7285c-3.565498,0.835396-6.6875-0.181702-8.966797-3.284203   c-1.115303-1.519997-1.223701-3.336899-1.738304-5.035698c0.042-0.196701,0.048805-0.3955,0.019501-0.594704   C122.255898,75.088898,127.920898,74.879402,133.59079,73.502403z"/><path class="st7" d="M111.6455,113.792503c-3.520004-0.155304-5.970703-2.189507-7.885201-4.839905   c-1.028404-1.423798-0.512299-2.875,1.4394-2.923798c4.602097-0.118202,9.208496-0.077103,13.810997-0.003899   c1.453201,0.022995,1.822304,0.815399,1.247101,2.244095C119.083,111.188499,115.055695,113.849602,111.6455,113.792503z"/><path class="st7" d="M138.6875,105.985802c2.203094-0.0009,4.406296-0.045403,6.6064,0.015701   c1.273499,0.035095,2.112396,0.436996,1.556702,2.0625c-0.99321,2.912094-4.943405,5.6577-8.479507,5.7285   c-2.830093,0.057594-7.445297-2.723206-8.329086-5.1353c-0.565414-1.542007-0.003906-2.602501,1.740189-2.653305   C134.082001,105.938004,136.386703,105.987801,138.6875,105.985802z"/><path class="st7" d="M125.241196,119.2192c2.202202,0.002998,4.405304-0.018501,6.607407,0.009796   c2.082092,0.027306,2.4151,1.014702,1.414093,2.695305c-3.286102,5.514198-11.958,6.0513-15.675797,0.941399   c-0.636703-0.875-1.380402-1.868103-0.797798-3.0224c0.512695-1.012703,1.599594-0.584999,2.445297-0.608398   C121.236298,119.180199,123.238297,119.2183,125.241196,119.2192z"/><path class="st8" d="M112.464798,57.650398c-0.0756,2.005402,0.3116,4.939404-0.361298,7.797401   c-1.810005,7.677704-8.876404,13.042397-16.754402,12.799301c-7.786598-0.241203-14.503395-6.1465-15.639099-14.054703   c-0.711998-4.965298-0.711998-10.0103,0.007301-14.976597c1.225601-8.454102,8.823196-14.5117,17.183601-13.9492   C105.625,35.854,112.183594,42.619099,112.456497,51.3452C112.513695,53.147499,112.464798,54.953098,112.464798,57.650398z    M95.749001,45.332001c2.088898,4.303699,1.374001,8.209-2.071304,8.5303c-3.549294,0.330101-2.9795,2.265598-2.942299,4.375999   c0.0224,1.3022-0.054695,2.629398,0.164001,3.901798c0.726601,4.225601,4.129402,6.833,8.369598,6.5401   c3.939003-0.271996,6.922897-3.425301,7.060097-7.608398c0.090302-2.808102,0.085907-5.622601,0.007805-8.431202   C106.174797,46.769501,101.397003,43.498001,95.749001,45.332001z"/><path class="st8" d="M137.639603,56.494099c-0.003906-4.0947-0.308502-8.194298,1.717789-12.0429   c3.669907-6.970699,11.099609-10.558598,18.638702-8.835499c7.167999,1.638699,12.573196,8.3531,12.739304,15.9375   c0.077103,3.506401,0.091705,7.0191-0.007904,10.524399c-0.255798,9.066902-7.780197,16.278404-16.789001,16.177803   c-8.842789-0.098198-16.116196-7.385803-16.29689-16.349102C137.605499,60.1021,137.635696,58.297401,137.639603,56.494099z    M159.343796,56.8423c-0.009796,0-0.019592,0-0.029297,0c0-1.703102,0.125-3.417999-0.024506-5.107899   c-0.416-4.700703-5.018494-7.983402-9.421799-6.850601c-1.308594,0.336899-2.138702,0.5-1.273499,2.3237   c1.318405,2.781799,0.3311,5.741199-2.347595,6.445301c-2.551804,0.669998-2.692398,2.049797-2.538101,4.054699   c0.098602,1.296398-0.053696,2.6157,0.094696,3.903801c0.501999,4.388195,3.877899,7.266598,8.196304,7.0825   c4.092789-0.174301,7.151398-3.338303,7.334-7.642002C159.394501,59.650398,159.343796,58.245602,159.343796,56.8423z"/><path class="st9" d="M133.59079,73.502403c-5.669891,1.376999-11.334892,1.586494-16.996094-0.044907   c-3.255798-0.351997-3.741699-1.076599-2.200195-3.894493c2.365295-4.320305,6.091797-6.460503,11.054695-6.384304   c4.767601,0.073299,8.157204,2.394497,10.323296,6.515598C137.164993,72.346199,136.724594,72.998497,133.59079,73.502403z    M125.310493,65.064903c-0.0009-0.030701-0.0009-0.0625-0.0009-0.093201c-0.889694,0.041496-1.823296-0.075203-2.653297,0.167   c-1.083099,0.316399-2.066498,1.055595-1.695396,2.370598c0.337898,1.199203,1.484398,1.358902,2.439499,0.919899   c1.331001-0.610397,2.486298-0.118202,3.737297,0.121597c0.966797,0.185501,1.786102-0.225098,1.977509-1.310097   c0.201187-1.137199-0.214813-1.988701-1.435509-2.1567C126.903297,64.978996,126.100594,65.064903,125.310493,65.064903z"/><path class="st10" d="M95.749001,45.332001c5.648003-1.834,10.425797,1.4375,10.587898,7.308598   c0.078102,2.808601,0.082497,5.6231-0.007805,8.431202c-0.137199,4.183098-3.121094,7.336403-7.060097,7.608398   c-4.240196,0.2929-7.642998-2.314499-8.369598-6.5401c-0.218697-1.2724-0.141602-2.599598-0.164001-3.901798   c-0.037201-2.110401-0.606995-4.045898,2.942299-4.375999C97.123001,53.541,97.837898,49.6357,95.749001,45.332001z"/><path class="st10" d="M159.343796,56.8423c0,1.403301,0.050705,2.808098-0.009796,4.209499   c-0.182602,4.303699-3.241211,7.467701-7.334,7.642002c-4.318405,0.184097-7.694305-2.694305-8.196304-7.0825   c-0.148392-1.288101,0.003906-2.607403-0.094696-3.903801c-0.154297-2.004902-0.013702-3.384701,2.538101-4.054699   c2.678696-0.704102,3.666-3.663502,2.347595-6.445301c-0.865204-1.8237-0.035095-1.986801,1.273499-2.3237   c4.403305-1.132801,9.005798,2.149899,9.421799,6.850601c0.149506,1.689899,0.024506,3.404797,0.024506,5.107899   C159.324203,56.8423,159.334,56.8423,159.343796,56.8423z"/><path class="st11" d="M125.310493,65.064903c0.7901,0,1.592804-0.085907,2.369202,0.019096   c1.220695,0.167999,1.636696,1.019501,1.435509,2.1567c-0.191406,1.084999-1.010712,1.495598-1.977509,1.310097   c-1.250999-0.239799-2.406296-0.731995-3.737297-0.121597c-0.955101,0.439003-2.101601,0.279305-2.439499-0.919899   c-0.371101-1.315002,0.612297-2.054199,1.695396-2.370598c0.830002-0.242203,1.763603-0.125504,2.653297-0.167   C125.309593,65.002403,125.309593,65.034203,125.310493,65.064903z"/></g></svg>