<?xml version="1.0" ?><svg id="Layer_1" style="enable-background:new 0 0 1162 940.297791;" version="1.1" viewBox="0 0 1162 940.297791" xml:space="preserve" xmlns="http://www.w3.org/2000/svg" xmlns:cc="http://creativecommons.org/ns#" xmlns:dc="http://purl.org/dc/elements/1.1/" xmlns:inkscape="http://www.inkscape.org/namespaces/inkscape" xmlns:rdf="http://www.w3.org/1999/02/22-rdf-syntax-ns#" xmlns:sodipodi="http://sodipodi.sourceforge.net/DTD/sodipodi-0.dtd" xmlns:svg="http://www.w3.org/2000/svg" xmlns:xlink="http://www.w3.org/1999/xlink"><style type="text/css">
	.st0{fill:#59CC03;}
</style><title id="title48"/><path class="st0" d="M949.736755,470.148895  c0-37.050079,28.228638-63.161591,65.631592-63.161591c37.402893,0,65.631653,26.111511,65.631653,63.161591  s-28.228638,63.161652-65.631592,63.161652s-65.631592-26.464386-65.631592-63.161621L949.736755,470.148895z   M1043.949951,470.148895c0-17.290039-10.938721-29.99295-28.228699-29.99295c-17.290039,0-28.228638,12.702911-28.228638,29.99295  c0,17.29007,10.938599,29.99295,28.228638,29.99295C1033.01123,500.141846,1043.949951,487.791809,1043.949951,470.148895z   M925.036682,440.861694c2.469971,4.940002,3.528564,10.23288,3.528564,15.878601c0,13.4086-7.05719,25.758667-18.348633,35.285828  c15.525757,7.410034,24.700073,25.405762,24.700073,42.343018c0,31.757202-25.758667,52.928711-64.925903,52.928711  s-64.925903-20.818665-64.925903-52.928711c-0.352844-17.642944,9.174316-33.87442,24.700073-42.343018  c-11.644348-9.527161-18.348633-21.877197-18.348633-35.285828c0-27.875793,21.877197-48.341553,56.457336-48.341553  c20.465759,0,26.464355,3.528564,38.108704,3.528564c7.762878,0.352875,15.878601-1.764282,22.582947-5.998566  c2.470032-1.411438,4.940002-2.470001,7.762878-2.470001c4.587158,0,7.05719,4.587158,7.05719,10.23288  c1.058594,12.350037-6.704285,23.288635-18.348633,27.170074H925.036682z M898.572327,533.310547  c0-14.11438-10.938599-23.994385-28.228638-23.994385s-28.228638,9.527161-28.228638,23.994385  c0,13.408569,11.997192,23.994324,28.228638,23.994324C886.575195,557.304871,898.572327,546.719116,898.572327,533.310547z   M847.407898,458.857422c0.352844,12.350037,10.938599,22.230103,23.641479,21.877228  c11.997192-0.352875,21.171509-9.880035,21.877197-21.877228c0-12.702881-9.174316-21.524323-22.582947-21.524323  s-22.935791,8.468597-22.935791,21.524323H847.407898z M788.127747,472.618896v44.1073  c0,8.468567-3.17572,11.997131-12.350037,11.997131h-12.350037c-9.174316,0-12.350037-3.528564-12.350037-11.997131V473.67746  c0-10.938599-1.764282-18.701477-5.645752-23.641479c-4.587158-5.645721-11.644348-8.468597-18.701477-8.115753  c-7.410034-0.352844-14.467163,2.822876-19.407227,8.115753c-4.234314,4.940002-7.05719,12.702881-7.05719,23.288635v43.048676  c0,8.821472-3.88147,11.997192-12.350037,11.997192h-12.350037c-8.468567,0-12.350037-3.17572-12.350037-11.997192v-98.800262  c0-5.645721,2.822876-8.115723,7.05719-8.115723c6.35144,0,15.172913,5.292877,21.877197,15.525757  c10.23291-11.291473,24.700134-17.642914,39.873047-17.642914c17.995789,0,32.462952,6.35144,41.990112,16.937195  S788.127747,449.330261,788.127747,472.618896z M595.467163,373.112915c0-11.291473,9.527161-20.112915,20.46582-20.112915h0.705688  c10.938599,0.705719,19.407227,10.23288,18.701477,21.171478s-10.23291,19.407196-21.171509,18.701508  C603.582886,392.520111,595.467163,383.698669,595.467163,373.112915z M597.937195,516.726196V423.9245  c0-8.468628,3.17572-12.350037,12.350037-12.350037h12.350037c9.174316,0,12.350037,3.528564,12.350037,12.350037v92.801697  c0,8.468567-3.17572,11.997192-12.350037,11.997192h-12.350037C601.112915,528.723389,597.937195,525.194763,597.937195,516.726196z   M532.658447,516.726196V400.28299c0-29.287231,16.231445-45.871552,29.99292-45.871552  c4.234314,0,7.05719,2.822876,7.05719,8.115723v154.199036c0,8.821411-3.528625,11.997192-12.350037,11.997192h-12.350037  C536.539917,528.723389,532.658447,525.547607,532.658447,516.726196z M380.223724,470.148895  c0-37.050079,28.228638-63.161591,65.631622-63.161591s65.631592,26.111511,65.631592,63.161591  s-28.228638,63.161652-65.631592,63.161652S380.223724,506.846161,380.223724,470.148895z M474.083984,470.148895  c0-17.290039-10.938599-29.99295-28.228638-29.99295s-28.228638,12.702911-28.228638,29.99295  c0,17.29007,10.938599,29.99295,28.228638,29.99295S474.083984,487.791809,474.083984,470.148895z M361.169373,423.9245v98.800232  c0,5.645752-2.822845,8.115784-7.057159,8.115784c-6.35144,0-15.172913-5.292908-21.524353-15.172913  c-9.880035,11.291443-23.994354,17.642883-39.167267,17.290039c-14.114319,0.352844-27.522919-4.587158-38.108673-14.114319  c-10.938614-10.585754-16.937195-26.8172-16.937195-50.105865V423.9245c0-8.468628,3.17572-12.350037,12.350037-12.350037h12.350037  c9.174316,0,12.350037,3.528564,12.350037,12.350037v41.637268c0,14.114319,2.470001,21.524323,7.057159,26.464355  c4.234314,4.234283,10.585754,6.704285,16.584351,6.35144c6.704285,0,13.055725-2.470032,17.642883-7.410034  s7.05719-12.702881,7.05719-24.700073V423.9245c0-8.821472,3.881409-12.350037,12.350037-12.350037h12.350037  C357.287933,411.574463,361.169373,415.103027,361.169373,423.9245z M212.968948,362.527161v160.197632  c0,5.645691-2.822876,8.115723-7.057159,8.115723c-6.351456,0-15.172913-5.292908-21.524353-14.820068  c-7.762878,9.174316-23.641495,17.2901-41.990128,17.2901C105.700073,533.310547,81,506.493286,81,470.148895  s25.405785-63.161591,61.397324-63.161591c11.997177,0,23.641495,3.528564,33.874374,10.23288V400.28299  c0-29.287231,16.58432-45.871552,29.992935-45.871552C210.498932,354.411438,212.968948,357.234314,212.968948,362.527161z   M176.271698,470.148895c0-17.995758-12.702896-29.99295-28.581512-29.99295s-28.934372,11.997192-28.934372,29.99295  s12.702896,29.99295,28.934372,29.99295S176.271698,488.497528,176.271698,470.148895z" id="path50"/></svg>